# xmcd
#
# Track frame offsets:
#	187
#	26485
#	44512
#
# Disc length: 853
#
# Revision: 1
# Processed by: cddbd v1.5.1PL0 Copyright (c) Steve Scherf et al.
# Submitted via: CDex 1.50
# Normalized: r0:DSETVAR1,TDELIM( - )
#
DISCID=1e035303
DTITLE=Various Artist - GRP 10th Anniversary Collection (Special CD)
DYEAR=1992
DGENRE=Jazz
TTITLE0=The Brecker Brothers - Big Idea (Longwave Version)
TTITLE1=Patti Austin - Together
TTITLE2=New York Voices - Persona
EXTD=YEAR: 1992
EXTT0=
EXTT1=
EXTT2=
PLAYORDER=
